STARTFONT 2.1
FONT -thai-dbthaitext-medium-i-normal--39-280-100-100-p-116-tis620-0
SIZE 28 100 100
FONTBOUNDINGBOX 51 45 -13 -16
STARTPROPERTIES 25
FOUNDRY "thai"
FAMILY_NAME "dbthaitext"
WEIGHT_NAME "medium"
SLANT "i"
SETWIDTH_NAME "normal"
ADD_STYLE_NAME ""
PIXEL_SIZE 39
POINT_SIZE 280
RESOLUTION_X 100
RESOLUTION_Y 100
SPACING "p"
AVERAGE_WIDTH 116
CHARSET_REGISTRY "tis620"
CHARSET_ENCODING "0"
FONT "-thai-dbthaitext-medium-i-normal--39-280-100-100-p-116-tis620-0"
COPYRIGHT "Typeface (c) The Monotype Corporation plc. Data (c) The Monotype Corporation plc/Type Solutions Inc. 1990-1992. All Rights Reserved"
RAW_PIXELSIZE 1000
RAW_POINTSIZE 723
RAW_ASCENT 736
RAW_DESCENT 415
RAW_AVERAGE_WIDTH 2994
FACE_NAME "DBThaiTextItalic5"
DEFAULT_CHAR 0
FONT_ASCENT 29
FONT_DESCENT 16
ENDPROPERTIES
CHARS 190
STARTCHAR space
ENCODING 32
SWIDTH 257 0
DWIDTH 10 0
BBX 0 0 0 0
BITMAP
ENDCHAR
STARTCHAR exclam
ENCODING 33
SWIDTH 154 0
DWIDTH 6 0
BBX 7 17 0 0
BITMAP
06
06
0c
0c
0c
08
18
18
10
10
30
20
20
00
00
40
c0
ENDCHAR
STARTCHAR quotedbl
ENCODING 34
SWIDTH 205 0
DWIDTH 8 0
BBX 7 5 1 11
BITMAP
66
6c
cc
c8
88
ENDCHAR
STARTCHAR numbersign
ENCODING 35
SWIDTH 334 0
DWIDTH 13 0
BBX 15 16 -1 0
BITMAP
00c6
00cc
018c
0198
031a
1ffc
1630
0460
0c60
08d0
7ff0
b180
3300
6300
6600
c600
ENDCHAR
STARTCHAR dollar
ENCODING 36
SWIDTH 334 0
DWIDTH 13 0
BBX 14 21 -1 -3
BITMAP
0020
00f0
03f8
065c
0ccc
188c
1880
1980
1f00
0fc0
03f0
0270
0230
c630
c460
c4e0
edc0
7f00
1800
1800
1000
ENDCHAR
STARTCHAR percent
ENCODING 37
SWIDTH 540 0
DWIDTH 21 0
BBX 17 16 2 0
BITMAP
0e0300
3f0600
630400
c10800
c31000
c23000
fe6000
78c000
018000
031f00
023180
046180
084180
184100
306700
607c00
ENDCHAR
STARTCHAR ampersand
ENCODING 38
SWIDTH 411 0
DWIDTH 16 0
BBX 14 18 -1 -1
BITMAP
0020
01f8
0398
0718
0618
0630
07e0
07c0
0f80
1d8c
39d8
70f8
e0f0
e060
e0f0
ffb0
7f38
1000
ENDCHAR
STARTCHAR apostrophe
ENCODING 39
SWIDTH 102 0
DWIDTH 4 0
BBX 3 5 1 11
BITMAP
60
40
c0
c0
80
ENDCHAR
STARTCHAR parenleft
ENCODING 40
SWIDTH 205 0
DWIDTH 8 0
BBX 9 22 1 -5
BITMAP
0180
0300
0200
0400
0c00
0800
1000
3000
2000
6000
6000
4000
c000
c000
c000
8000
8000
8000
8000
c000
4000
4000
ENDCHAR
STARTCHAR parenright
ENCODING 41
SWIDTH 205 0
DWIDTH 8 0
BBX 9 22 -2 -5
BITMAP
0100
0100
0080
0080
0080
0080
0080
0180
0180
0180
0100
0300
0300
0200
0600
0400
0800
1800
1000
2000
6000
c000
ENDCHAR
STARTCHAR asterisk
ENCODING 42
SWIDTH 231 0
DWIDTH 9 0
BBX 7 7 1 11
BITMAP
08
18
18
fe
38
78
d8
ENDCHAR
STARTCHAR plus
ENCODING 43
SWIDTH 360 0
DWIDTH 14 0
BBX 12 11 1 0
BITMAP
0180
0100
0300
0300
0210
fff0
8400
0c00
0c00
0800
1800
ENDCHAR
STARTCHAR comma
ENCODING 44
SWIDTH 154 0
DWIDTH 6 0
BBX 5 5 0 -2
BITMAP
38
78
78
10
60
ENDCHAR
STARTCHAR minus
ENCODING 45
SWIDTH 205 0
DWIDTH 8 0
BBX 6 2 1 5
BITMAP
fc
c0
ENDCHAR
STARTCHAR period
ENCODING 46
SWIDTH 154 0
DWIDTH 6 0
BBX 3 3 1 0
BITMAP
60
e0
c0
ENDCHAR
STARTCHAR slash
ENCODING 47
SWIDTH 154 0
DWIDTH 6 0
BBX 12 17 -3 -1
BITMAP
0020
0060
0040
0080
0080
0100
0300
0200
0400
0c00
0800
1000
1000
2000
6000
4000
8000
ENDCHAR
STARTCHAR 0
ENCODING 48
SWIDTH 282 0
DWIDTH 11 0
BBX 11 14 0 0
BITMAP
03c0
0fe0
1860
3060
3060
6060
60c0
60c0
c0c0
c180
c180
c300
e600
7c00
ENDCHAR
STARTCHAR 1
ENCODING 49
SWIDTH 282 0
DWIDTH 11 0
BBX 6 14 3 0
BITMAP
04
0c
38
f8
18
10
30
30
20
60
60
40
c0
c0
ENDCHAR
STARTCHAR 2
ENCODING 50
SWIDTH 282 0
DWIDTH 11 0
BBX 12 15 -1 -1
BITMAP
01e0
07f0
0c10
0810
1810
0020
0040
0180
0600
1800
2000
6000
4080
ff80
c000
ENDCHAR
STARTCHAR 3
ENCODING 51
SWIDTH 282 0
DWIDTH 11 0
BBX 12 14 -1 0
BITMAP
03e0
0ff0
1c70
1870
3070
00e0
07c0
07c0
00c0
00c0
c0c0
c180
e780
7e00
ENDCHAR
STARTCHAR 4
ENCODING 52
SWIDTH 282 0
DWIDTH 11 0
BBX 11 14 -1 0
BITMAP
0060
00e0
01c0
03c0
06c0
0c80
1980
3180
6120
ffc0
8200
0200
0600
0600
ENDCHAR
STARTCHAR 5
ENCODING 53
SWIDTH 282 0
DWIDTH 11 0
BBX 12 15 0 0
BITMAP
0030
07f0
0800
0800
1800
1000
3780
39c0
20c0
00c0
00c0
0080
c180
e700
7c00
ENDCHAR
STARTCHAR 6
ENCODING 54
SWIDTH 282 0
DWIDTH 11 0
BBX 11 14 0 0
BITMAP
03c0
0fe0
1860
1060
3000
6700
7f80
7180
c080
c080
c180
c100
c600
7c00
ENDCHAR
STARTCHAR 7
ENCODING 55
SWIDTH 282 0
DWIDTH 11 0
BBX 12 15 0 0
BITMAP
0030
3ff0
0060
0040
0080
0100
0300
0600
0c00
0800
1000
3000
6000
6000
c000
ENDCHAR
STARTCHAR 8
ENCODING 56
SWIDTH 282 0
DWIDTH 11 0
BBX 12 14 -1 0
BITMAP
03e0
0ff0
1c30
1830
1860
18e0
0f80
3dc0
70c0
60c0
e0c0
e1c0
e380
7e00
ENDCHAR
STARTCHAR 9
ENCODING 57
SWIDTH 282 0
DWIDTH 11 0
BBX 11 14 0 0
BITMAP
03c0
0fe0
1860
3060
3060
2060
20c0
31c0
1ec0
0080
0180
c300
c600
fc00
ENDCHAR
STARTCHAR colon
ENCODING 58
SWIDTH 154 0
DWIDTH 6 0
BBX 7 13 0 0
BITMAP
0e
1e
1c
00
00
00
00
00
00
20
70
e0
40
ENDCHAR
STARTCHAR semicolon
ENCODING 59
SWIDTH 154 0
DWIDTH 6 0
BBX 7 15 -1 -2
BITMAP
06
0e
0c
00
00
00
00
00
00
00
30
70
70
20
40
ENDCHAR
STARTCHAR less
ENCODING 60
SWIDTH 360 0
DWIDTH 14 0
BBX 13 11 1 0
BITMAP
0008
0078
03e0
0f00
7800
c000
f000
3c00
0f00
03c0
00c0
ENDCHAR
STARTCHAR equal
ENCODING 61
SWIDTH 360 0
DWIDTH 14 0
BBX 12 7 1 2
BITMAP
0030
3ff0
6000
0000
0060
ffc0
c000
ENDCHAR
STARTCHAR greater
ENCODING 62
SWIDTH 360 0
DWIDTH 14 0
BBX 13 11 0 0
BITMAP
1000
1c00
0f00
01c0
0070
0018
00f0
03c0
1e00
7000
8000
ENDCHAR
STARTCHAR question
ENCODING 63
SWIDTH 334 0
DWIDTH 13 0
BBX 11 18 3 0
BITMAP
0f80
1fc0
3fe0
70e0
60e0
e0e0
00c0
0180
0700
0e00
1c00
3800
3000
0000
0000
0000
6000
c000
ENDCHAR
STARTCHAR at
ENCODING 64
SWIDTH 617 0
DWIDTH 24 0
BBX 23 21 0 -3
BITMAP
000780
001fe0
007ff8
01e03c
03800c
06000e
0c1e66
187fc6
30e1c6
31c186
61830c
63030c
c30618
c70c30
c71c60
c3efc0
e18700
600000
780000
3e1c00
07f000
ENDCHAR
STARTCHAR A
ENCODING 65
SWIDTH 411 0
DWIDTH 16 0
BBX 15 17 -2 0
BITMAP
000e
001e
003e
007e
006e
00ee
01ce
018e
038e
070e
0e3e
0ffe
180e
380e
300e
600e
e00e
ENDCHAR
STARTCHAR B
ENCODING 66
SWIDTH 411 0
DWIDTH 16 0
BBX 16 18 -1 -1
BITMAP
07fe
060f
0607
0c03
0c03
0c06
0c0e
181c
1ff8
181c
300c
300c
300c
7018
6038
6070
ffc0
f000
ENDCHAR
STARTCHAR C
ENCODING 67
SWIDTH 437 0
DWIDTH 17 0
BBX 16 19 1 -1
BITMAP
00f8
01fc
03fe
0f07
1c07
1803
3000
3000
6000
6000
e000
c000
c00c
c01c
e038
e070
70e0
3f80
0400
ENDCHAR
STARTCHAR D
ENCODING 68
SWIDTH 437 0
DWIDTH 17 0
BBX 17 18 -1 -1
BITMAP
07fe00
060700
060380
0c0380
0c0180
0c0180
0c0180
180380
180300
180300
300700
300600
300c00
701c00
603800
60e000
ff8000
f00000
ENDCHAR
STARTCHAR E
ENCODING 69
SWIDTH 411 0
DWIDTH 16 0
BBX 17 18 0 0
BITMAP
000f80
07ff80
060000
040000
0c0000
0c0000
0c0000
1c0000
183c00
1ffc00
300000
300000
300000
700000
600000
600000
e0f000
fff000
ENDCHAR
STARTCHAR F
ENCODING 70
SWIDTH 360 0
DWIDTH 14 0
BBX 17 18 -1 0
BITMAP
000f80
07ff80
060000
060000
0e0000
0c0000
0c0000
1c0000
183800
1ff800
380000
300000
300000
700000
600000
600000
e00000
c00000
ENDCHAR
STARTCHAR G
ENCODING 71
SWIDTH 462 0
DWIDTH 18 0
BBX 17 19 0 -1
BITMAP
007e00
03cf00
078700
0f0380
0c0180
180180
300000
200000
600700
607f00
c00200
c00600
c00600
c00e00
e00c00
e03c00
706c00
3fc800
040800
ENDCHAR
STARTCHAR H
ENCODING 72
SWIDTH 437 0
DWIDTH 17 0
BBX 19 17 -1 0
BITMAP
070060
0700e0
0600c0
0e00c0
0e01c0
0c0180
1c0180
180380
1fff00
380300
380700
300600
700600
600e00
600c00
e00c00
c01c00
ENDCHAR
STARTCHAR I
ENCODING 73
SWIDTH 154 0
DWIDTH 6 0
BBX 8 17 -1 0
BITMAP
03
07
06
06
0e
0c
0c
18
18
18
30
30
30
60
60
60
c0
ENDCHAR
STARTCHAR J
ENCODING 74
SWIDTH 308 0
DWIDTH 12 0
BBX 14 18 -1 -1
BITMAP
000c
001c
0018
0018
0038
0030
0030
0070
0060
0060
00e0
00c0
e0c0
c1c0
c180
ef00
7e00
1000
ENDCHAR
STARTCHAR K
ENCODING 75
SWIDTH 411 0
DWIDTH 16 0
BBX 19 17 -1 0
BITMAP
0701e0
060380
060700
0e0c00
0c3800
0c7000
1cc000
1bc000
1fc000
3ce000
386000
306000
707000
603000
603800
e03800
c01800
ENDCHAR
STARTCHAR L
ENCODING 76
SWIDTH 334 0
DWIDTH 13 0
BBX 11 18 -1 -1
BITMAP
0600
0600
0600
0e00
0c00
0c00
0c00
1800
1800
1800
3000
3000
3000
7000
6000
61e0
ffe0
f800
ENDCHAR
STARTCHAR M
ENCODING 77
SWIDTH 488 0
DWIDTH 19 0
BBX 21 17 -1 0
BITMAP
070038
070078
0700f0
0f00f0
0f01f0
0f0360
1b0360
1b06e0
1b84c0
318cc0
3198c0
319980
71b180
61e180
61e300
e1c300
c18300
ENDCHAR
STARTCHAR N
ENCODING 78
SWIDTH 437 0
DWIDTH 17 0
BBX 19 17 -1 0
BITMAP
070060
0780e0
0780c0
0f80c0
0dc1c0
0dc180
1cc180
18c380
18e300
386300
306700
306600
707600
603e00
603c00
e03c00
c01c00
ENDCHAR
STARTCHAR O
ENCODING 79
SWIDTH 462 0
DWIDTH 18 0
BBX 17 19 1 -1
BITMAP
007c00
03df00
078f00
0e0380
0c0180
180180
300180
200180
600180
400100
c00300
c00300
c00600
c00600
c00c00
e03800
707000
3dc000
060000
ENDCHAR
STARTCHAR P
ENCODING 80
SWIDTH 411 0
DWIDTH 16 0
BBX 16 17 0 0
BITMAP
07fe
060f
0603
0c03
0c03
0c02
1c06
1808
1ff0
3000
3000
2000
6000
6000
6000
c000
c000
ENDCHAR
STARTCHAR Q
ENCODING 81
SWIDTH 462 0
DWIDTH 18 0
BBX 17 19 1 -1
BITMAP
007c00
03df00
078f00
0e0380
0c0180
180180
300180
200180
600180
400100
c00300
c00300
c00600
c04400
c0ec00
e07800
70f000
3ff800
040800
ENDCHAR
STARTCHAR R
ENCODING 82
SWIDTH 437 0
DWIDTH 17 0
BBX 17 17 0 0
BITMAP
07ff00
060380
040380
0c0180
0c0180
0c0300
180300
180e00
1ffc00
301c00
300c00
300c00
600c00
600c00
601800
e01800
c01800
ENDCHAR
STARTCHAR S
ENCODING 83
SWIDTH 411 0
DWIDTH 16 0
BBX 16 19 0 -1
BITMAP
00fc
039e
071f
0607
0c07
1c07
1c00
1e00
1fc0
07f8
00fc
001c
001c
e01c
e018
e038
f9f0
7fc0
0c00
ENDCHAR
STARTCHAR T
ENCODING 84
SWIDTH 360 0
DWIDTH 14 0
BBX 14 18 3 0
BITMAP
00fc
fffc
c700
0600
0600
0600
0c00
0c00
0c00
1c00
1800
1800
3800
3000
3000
7000
6000
6000
ENDCHAR
STARTCHAR U
ENCODING 85
SWIDTH 437 0
DWIDTH 17 0
BBX 17 18 1 -1
BITMAP
0c0180
0c0380
180300
180300
180700
300600
300600
300600
600c00
600c00
600c00
c01800
c01800
c03000
c07000
e0e000
7b8000
0c0000
ENDCHAR
STARTCHAR V
ENCODING 86
SWIDTH 411 0
DWIDTH 16 0
BBX 14 17 4 0
BITMAP
c01c
c018
c030
c070
c060
c0c0
c0c0
c180
c300
c300
c600
cc00
ec00
f800
f000
f000
e000
ENDCHAR
STARTCHAR W
ENCODING 87
SWIDTH 565 0
DWIDTH 22 0
BBX 22 17 2 0
BITMAP
60381c
603818
607838
60f030
60f070
61b060
6130c0
6331c0
663180
663380
ec3300
ec3600
d83600
f03c00
f03c00
e03800
e03000
ENDCHAR
STARTCHAR X
ENCODING 88
SWIDTH 411 0
DWIDTH 16 0
BBX 20 17 -2 0
BITMAP
038060
0380c0
018180
01c300
01c600
00cc00
00f800
00f000
007000
00f000
03b000
073800
0e3800
1c1800
381c00
701c00
e00e00
ENDCHAR
STARTCHAR Y
ENCODING 89
SWIDTH 411 0
DWIDTH 16 0
BBX 15 17 3 0
BITMAP
e00e
e01c
6038
7070
70e0
31c0
3180
3b00
1e00
1c00
1800
1800
3800
3000
3000
7000
6000
ENDCHAR
STARTCHAR Z
ENCODING 90
SWIDTH 360 0
DWIDTH 14 0
BBX 18 19 -2 -1
BITMAP
0007c0
03ffc0
000380
000780
000f00
001e00
003c00
003800
007000
00e000
01c000
038000
070000
0e0000
1c0000
380000
707800
fff800
fc0000
ENDCHAR
STARTCHAR bracketleft
ENCODING 91
SWIDTH 154 0
DWIDTH 6 0
BBX 12 24 -2 -6
BITMAP
0010
01f0
0180
0180
0300
0300
0300
0600
0600
0600
0c00
0c00
0c00
1800
1800
1800
3000
3000
3000
6000
6000
6800
f800
8000
ENDCHAR
STARTCHAR backslash
ENCODING 92
SWIDTH 154 0
DWIDTH 6 0
BBX 2 17 2 0
BITMAP
40
40
40
40
40
40
40
40
40
40
40
40
40
40
40
40
40
ENDCHAR
STARTCHAR bracketright
ENCODING 93
SWIDTH 154 0
DWIDTH 6 0
BBX 12 24 -3 -6
BITMAP
0010
01f0
0060
0060
0060
00c0
00c0
00c0
0180
0180
0180
0300
0300
0300
0600
0600
0400
0c00
0c00
0800
1800
1800
f000
8000
ENDCHAR
STARTCHAR asciicircum
ENCODING 94
SWIDTH 282 0
DWIDTH 11 0
BBX 9 9 0 8
BITMAP
0300
0700
0700
0d80
1980
1180
3180
6180
c180
ENDCHAR
STARTCHAR underscore
ENCODING 95
SWIDTH 334 0
DWIDTH 13 0
BBX 14 1 -1 -4
BITMAP
fffc
ENDCHAR
STARTCHAR grave
ENCODING 96
SWIDTH 180 0
DWIDTH 7 0
BBX 7 7 0 3
BITMAP
1c
7e
7e
fe
fc
f8
70
ENDCHAR
STARTCHAR a
ENCODING 97
SWIDTH 334 0
DWIDTH 13 0
BBX 12 14 0 -1
BITMAP
03c0
07f0
0c30
1830
0020
0060
0fe0
3cc0
60c0
c0c0
c180
c380
fcc0
1040
ENDCHAR
STARTCHAR b
ENCODING 98
SWIDTH 334 0
DWIDTH 13 0
BBX 13 18 -1 -1
BITMAP
0600
0600
0400
0c00
0de0
0e70
1c38
1c18
1818
3018
3018
2030
6030
6060
60e0
f9c0
df00
0400
ENDCHAR
STARTCHAR c
ENCODING 99
SWIDTH 308 0
DWIDTH 12 0
BBX 12 14 0 -1
BITMAP
03c0
07e0
1e70
3830
3030
6000
6000
e000
c000
c0c0
e1c0
f380
7e00
1000
ENDCHAR
STARTCHAR d
ENCODING 100
SWIDTH 334 0
DWIDTH 13 0
BBX 15 18 -1 -1
BITMAP
0006
0006
000c
000c
03dc
0ef8
1c78
3838
3030
6030
6030
e060
c060
c0e0
c1c0
e3c0
7ec0
1080
ENDCHAR
STARTCHAR e
ENCODING 101
SWIDTH 334 0
DWIDTH 13 0
BBX 12 14 0 -1
BITMAP
03c0
07e0
1c70
3030
3030
6030
7fe0
c000
c000
c0c0
c0c0
e380
7e00
0800
ENDCHAR
STARTCHAR f
ENCODING 102
SWIDTH 154 0
DWIDTH 6 0
BBX 9 18 0 0
BITMAP
0380
0780
0780
0400
0c00
0d00
3e00
3800
1800
1000
3000
3000
2000
6000
6000
6000
c000
c000
ENDCHAR
STARTCHAR g
ENCODING 103
SWIDTH 334 0
DWIDTH 13 0
BBX 15 19 -1 -5
BITMAP
0002
01e6
0734
0e3c
0c1c
1c1c
1818
3818
3018
3030
3030
3070
39f0
1f60
0460
c0c0
c1c0
ff80
7e00
ENDCHAR
STARTCHAR h
ENCODING 104
SWIDTH 334 0
DWIDTH 13 0
BBX 12 17 -1 0
BITMAP
0600
0400
0400
0c00
0c40
0df0
1e30
1810
1030
3020
2020
2060
6040
6040
40c0
c080
c080
ENDCHAR
STARTCHAR i
ENCODING 105
SWIDTH 128 0
DWIDTH 5 0
BBX 7 17 -1 0
BITMAP
06
04
00
00
00
18
18
18
30
30
30
30
60
60
60
c0
c0
ENDCHAR
STARTCHAR j
ENCODING 106
SWIDTH 128 0
DWIDTH 5 0
BBX 11 22 -4 -5
BITMAP
0060
00c0
0000
0000
0000
0180
0180
0180
0300
0300
0300
0600
0600
0600
0c00
0c00
0c00
1800
1800
1800
f000
e000
ENDCHAR
STARTCHAR k
ENCODING 107
SWIDTH 308 0
DWIDTH 12 0
BBX 14 17 -2 0
BITMAP
0700
0600
0600
0e00
0c00
0c38
1870
18c0
1b80
3700
3f80
3980
7180
61c0
61c0
e0c0
c0e0
ENDCHAR
STARTCHAR l
ENCODING 108
SWIDTH 128 0
DWIDTH 5 0
BBX 7 17 -1 0
BITMAP
06
06
0c
0c
0c
18
18
18
10
30
30
30
60
60
60
c0
c0
ENDCHAR
STARTCHAR m
ENCODING 109
SWIDTH 488 0
DWIDTH 19 0
BBX 19 13 0 0
BITMAP
0de3c0
0a74e0
1c3860
183060
182060
306040
3060c0
2060c0
60c080
60c180
60c180
c18100
c18300
ENDCHAR
STARTCHAR n
ENCODING 110
SWIDTH 334 0
DWIDTH 13 0
BBX 12 13 0 0
BITMAP
09e0
0bf0
1e30
1810
1010
3020
2020
2060
6040
6040
40c0
c080
c080
ENDCHAR
STARTCHAR o
ENCODING 111
SWIDTH 334 0
DWIDTH 13 0
BBX 12 14 0 -1
BITMAP
03c0
0fe0
1ef0
3830
3030
6030
6030
c060
c060
c0c0
c1c0
f780
7e00
0800
ENDCHAR
STARTCHAR p
ENCODING 112
SWIDTH 334 0
DWIDTH 13 0
BBX 15 18 -2 -5
BITMAP
0278
06fc
078e
0706
0e06
0c06
0c0e
180c
180c
1818
3c38
3e70
36e0
6100
6000
6000
c000
c000
ENDCHAR
STARTCHAR q
ENCODING 113
SWIDTH 334 0
DWIDTH 13 0
BBX 13 18 1 -5
BITMAP
03d0
0ff8
1c70
3030
3030
6020
4020
c060
c040
c0c0
c1c0
e3c0
7f80
1180
0180
0100
0300
0300
ENDCHAR
STARTCHAR r
ENCODING 114
SWIDTH 205 0
DWIDTH 8 0
BBX 10 13 0 0
BITMAP
09c0
0fc0
1f80
1c00
1800
3800
3000
3000
6000
6000
6000
c000
c000
ENDCHAR
STARTCHAR s
ENCODING 115
SWIDTH 308 0
DWIDTH 12 0
BBX 12 14 0 -1
BITMAP
03e0
0ff0
1c70
3870
3800
3800
3f80
0fc0
00e0
e0e0
e0c0
e380
ff00
1800
ENDCHAR
STARTCHAR t
ENCODING 116
SWIDTH 154 0
DWIDTH 6 0
BBX 8 16 0 -1
BITMAP
06
0e
0d
3f
58
18
38
30
30
70
70
60
e0
e0
f0
60
ENDCHAR
STARTCHAR u
ENCODING 117
SWIDTH 334 0
DWIDTH 13 0
BBX 12 13 1 -1
BITMAP
1030
1030
2020
2060
2060
4040
4040
4080
8080
8180
e700
fd00
3000
ENDCHAR
STARTCHAR v
ENCODING 118
SWIDTH 308 0
DWIDTH 12 0
BBX 11 12 2 0
BITMAP
c0e0
c0c0
c180
c380
c300
c600
cc00
cc00
d800
f000
e000
e000
ENDCHAR
STARTCHAR w
ENCODING 119
SWIDTH 437 0
DWIDTH 17 0
BBX 17 12 2 0
BITMAP
e1c380
e1c300
e3c700
e6c600
c6cc00
cc9c00
c99800
d9b000
f1f000
f1e000
e1c000
c1c000
ENDCHAR
STARTCHAR x
ENCODING 120
SWIDTH 308 0
DWIDTH 12 0
BBX 15 12 -2 0
BITMAP
0e0e
061c
0730
0360
03c0
0380
0380
07c0
1dc0
38c0
70e0
e0e0
ENDCHAR
STARTCHAR y
ENCODING 121
SWIDTH 308 0
DWIDTH 12 0
BBX 16 17 -2 -5
BITMAP
0607
0606
060c
061c
0638
0630
0660
06e0
06c0
0780
0700
0700
0600
0c00
0800
7800
e000
ENDCHAR
STARTCHAR z
ENCODING 122
SWIDTH 308 0
DWIDTH 12 0
BBX 14 13 -1 -1
BITMAP
0ffc
0e38
0070
00e0
01c0
0380
0700
0e00
1c00
3800
71e0
ffc0
f800
ENDCHAR
STARTCHAR braceleft
ENCODING 123
SWIDTH 205 0
DWIDTH 8 0
BBX 10 23 0 -5
BITMAP
00c0
01c0
03c0
0200
0600
0600
0400
0c00
0c00
1800
1800
7000
6000
3000
3000
2000
6000
6000
4000
c000
c000
e000
6000
ENDCHAR
STARTCHAR bar
ENCODING 124
SWIDTH 154 0
DWIDTH 6 0
BBX 9 22 -1 -5
BITMAP
0180
0100
0100
0300
0200
0200
0600
0400
0400
0c00
0800
0800
1800
1000
1000
3000
2000
2000
6000
4000
4000
c000
ENDCHAR
STARTCHAR braceright
ENCODING 125
SWIDTH 205 0
DWIDTH 8 0
BBX 10 23 -3 -5
BITMAP
01c0
01c0
01c0
00c0
00c0
0080
0180
0180
0100
0300
0300
0180
0380
0600
0600
0c00
0c00
0800
1800
1800
1000
f000
e000
ENDCHAR
STARTCHAR asciitilde
ENCODING 126
SWIDTH 360 0
DWIDTH 14 0
BBX 11 4 1 6
BITMAP
3820
6e60
c7c0
0380
ENDCHAR
STARTCHAR exclamdown
ENCODING 161
SWIDTH 360 0
DWIDTH 14 0
BBX 12 13 1 0
BITMAP
07e0
0830
3010
0810
1010
1010
2020
2020
4020
4040
4040
c040
c080
ENDCHAR
STARTCHAR cent
ENCODING 162
SWIDTH 360 0
DWIDTH 14 0
BBX 12 13 2 0
BITMAP
3e30
7230
8a20
9260
e660
0c40
0840
08c0
1080
1080
1180
3100
fe00
ENDCHAR
STARTCHAR sterling
ENCODING 163
SWIDTH 385 0
DWIDTH 15 0
BBX 14 13 1 0
BITMAP
1f8c
244c
5088
f918
8b18
9210
6210
0630
0620
0420
0460
0c40
3f80
ENDCHAR
STARTCHAR currency
ENCODING 164
SWIDTH 360 0
DWIDTH 14 0
BBX 12 13 1 0
BITMAP
07c0
3870
6030
4f30
d930
d120
fe60
6060
6040
60c0
40c0
c080
c180
ENDCHAR
STARTCHAR yen
ENCODING 165
SWIDTH 360 0
DWIDTH 14 0
BBX 12 13 1 0
BITMAP
0e60
13b0
2030
4f30
d930
d120
fe60
6060
6040
60c0
40c0
c080
c180
ENDCHAR
STARTCHAR brokenbar
ENCODING 166
SWIDTH 462 0
DWIDTH 18 0
BBX 17 13 1 0
BITMAP
1dc180
224180
50c300
f98300
cb0300
db0600
730600
0f8600
1fec00
366c00
6c3c00
6c1800
381800
ENDCHAR
STARTCHAR section
ENCODING 167
SWIDTH 282 0
DWIDTH 11 0
BBX 10 13 1 0
BITMAP
03c0
06c0
04c0
0780
4180
c180
e100
6300
6300
6200
3600
3600
3c00
ENDCHAR
STARTCHAR diaeresis
ENCODING 168
SWIDTH 334 0
DWIDTH 13 0
BBX 10 13 2 0
BITMAP
1f80
60c0
80c0
08c0
3cc0
6680
4f80
7b80
0300
0300
0300
0200
0600
ENDCHAR
STARTCHAR copyright
ENCODING 169
SWIDTH 385 0
DWIDTH 15 0
BBX 12 13 1 0
BITMAP
03c0
0c20
1010
0010
7010
8820
9820
f060
73f0
7cd0
7090
60b0
60c0
ENDCHAR
STARTCHAR ordfeminine
ENCODING 170
SWIDTH 360 0
DWIDTH 14 0
BBX 14 14 2 0
BITMAP
000c
3e18
7b70
cbc0
9b60
f660
0c60
0840
08c0
18c0
1880
1180
3180
ff00
ENDCHAR
STARTCHAR guillemotleft
ENCODING 171
SWIDTH 385 0
DWIDTH 15 0
BBX 16 15 1 0
BITMAP
0001
0003
1d86
2658
50f0
f998
8b18
9b10
7210
0630
0620
0420
0460
0c40
3fc0
ENDCHAR
STARTCHAR notsign
ENCODING 172
SWIDTH 462 0
DWIDTH 18 0
BBX 18 13 1 0
BITMAP
0fe0c0
383080
183080
0c3180
102100
306100
206300
604300
71e200
7bf600
ca9e00
9f8c00
f30c00
ENDCHAR
STARTCHAR hyphen
ENCODING 173
SWIDTH 462 0
DWIDTH 18 0
BBX 18 20 2 -7
BITMAP
0fe0c0
383080
183080
0c3180
102100
306100
206300
604300
70c200
78c600
c88600
998c00
f7f800
000000
030800
079800
099000
0f2000
0fc000
030000
ENDCHAR
STARTCHAR registered
ENCODING 174
SWIDTH 411 0
DWIDTH 16 0
BBX 16 20 0 -7
BITMAP
007e
0183
0703
0183
0303
0202
0606
0406
0c04
7c0c
480c
4808
7018
0118
0110
3f10
47b0
8ce0
f860
6060
ENDCHAR
STARTCHAR macron
ENCODING 175
SWIDTH 411 0
DWIDTH 16 0
BBX 16 20 0 -7
BITMAP
007e
0183
0301
0181
0103
0202
0602
0406
0c04
3c04
480c
4808
7008
0218
0210
3c10
4cb0
8de0
f660
4260
ENDCHAR
STARTCHAR degree
ENCODING 176
SWIDTH 334 0
DWIDTH 13 0
BBX 17 21 -2 -8
BITMAP
007e00
008780
01e000
003800
000c00
01c400
024800
026800
03e800
033000
003000
003000
003000
000000
04c000
052000
192000
71c000
9a4000
ef8000
010000
ENDCHAR
STARTCHAR plusminus
ENCODING 177
SWIDTH 462 0
DWIDTH 18 0
BBX 17 13 1 0
BITMAP
1dc780
224d80
50d980
f9b180
cb6300
dbc300
738300
070600
070600
060600
0e0c00
0c0c00
080c00
ENDCHAR
STARTCHAR twosuperior
ENCODING 178
SWIDTH 488 0
DWIDTH 19 0
BBX 19 13 1 0
BITMAP
0e7060
1b9860
3018c0
6738c0
4db0c0
c9b180
cb3180
ce6180
4cf300
79fb00
73cb00
63ce00
c38600
ENDCHAR
STARTCHAR threesuperior
ENCODING 179
SWIDTH 488 0
DWIDTH 19 0
BBX 18 13 0 0
BITMAP
0fe0c0
383080
1c3180
0c3180
182100
306300
206300
604700
70df80
78f680
c8e680
d9cd80
f18f00
ENDCHAR
STARTCHAR acute
ENCODING 180
SWIDTH 360 0
DWIDTH 14 0
BBX 12 13 1 0
BITMAP
0fe0
1830
2010
4730
4930
c920
ca60
cc60
4840
50c0
60c0
4080
c180
ENDCHAR
STARTCHAR mu
ENCODING 181
SWIDTH 360 0
DWIDTH 14 0
BBX 12 13 1 0
BITMAP
0e60
13b0
2010
4730
4930
8920
8a60
cc60
4840
50c0
60c0
4080
c180
ENDCHAR
STARTCHAR paragraph
ENCODING 182
SWIDTH 360 0
DWIDTH 14 0
BBX 12 13 1 0
BITMAP
07e0
1830
3010
0810
1030
2020
2020
6060
7040
7040
90c0
9080
e080
ENDCHAR
STARTCHAR periodcentered
ENCODING 183
SWIDTH 360 0
DWIDTH 14 0
BBX 12 13 2 0
BITMAP
3070
70b0
f110
f210
3410
7820
7820
7020
6040
4040
c040
c080
c080
ENDCHAR
STARTCHAR cedilla
ENCODING 184
SWIDTH 334 0
DWIDTH 13 0
BBX 14 13 0 0
BITMAP
07e0
0c3c
1f00
01c0
0060
0c60
0860
1840
18c0
10c0
1080
3180
ff00
ENDCHAR
STARTCHAR onesuperior
ENCODING 185
SWIDTH 385 0
DWIDTH 15 0
BBX 12 13 2 0
BITMAP
3030
c830
8820
f020
3060
3040
2040
60c0
67e0
7990
6190
c120
c1c0
ENDCHAR
STARTCHAR masculine
ENCODING 186
SWIDTH 385 0
DWIDTH 15 0
BBX 15 13 0 0
BITMAP
1e06
3206
2604
3c0c
0c0c
0c08
0818
1818
1810
1030
3030
3060
ffc0
ENDCHAR
STARTCHAR guillemotright
ENCODING 187
SWIDTH 385 0
DWIDTH 15 0
BBX 17 18 -1 0
BITMAP
000180
000180
000100
000300
000300
1e0600
320600
360600
3e0c00
040c00
0c0c00
0c1800
081800
181800
183000
103000
307000
ffe000
ENDCHAR
STARTCHAR onequarter
ENCODING 188
SWIDTH 385 0
DWIDTH 15 0
BBX 15 13 0 0
BITMAP
0706
0986
190c
1f0c
100c
3018
3118
2798
6cb0
78f0
7070
e060
c060
ENDCHAR
STARTCHAR onehalf
ENCODING 189
SWIDTH 385 0
DWIDTH 15 0
BBX 16 18 -1 0
BITMAP
0003
0003
0002
0006
0006
0704
090c
110c
1e08
1008
3018
3310
2790
69b0
70e0
6060
c060
c040
ENDCHAR
STARTCHAR threequarters
ENCODING 190
SWIDTH 437 0
DWIDTH 17 0
BBX 15 13 2 0
BITMAP
3846
48c6
88c4
f14c
324c
3648
3458
2878
7070
7070
6030
c020
c020
ENDCHAR
STARTCHAR questiondown
ENCODING 191
SWIDTH 437 0
DWIDTH 17 0
BBX 17 18 1 0
BITMAP
000180
000180
000100
000300
000300
784200
484600
c8c600
f94400
134c00
164c00
346800
287800
387800
707000
603000
403000
c02000
ENDCHAR
STARTCHAR Agrave
ENCODING 192
SWIDTH 411 0
DWIDTH 16 0
BBX 16 13 -1 0
BITMAP
00fe
0387
0703
0183
0303
0606
0606
0c06
1c0c
7c0c
c80c
d818
f018
ENDCHAR
STARTCHAR Aacute
ENCODING 193
SWIDTH 385 0
DWIDTH 15 0
BBX 15 13 0 0
BITMAP
0e06
1206
1204
1e0c
040c
0408
0c08
1e18
7f90
58d0
9070
d060
e020
ENDCHAR
STARTCHAR Acircumflex
ENCODING 194
SWIDTH 334 0
DWIDTH 13 0
BBX 14 13 0 0
BITMAP
078c
0c8c
1d88
1718
1018
1810
0c30
1c30
2020
6060
4060
40c0
ff80
ENDCHAR
STARTCHAR Atilde
ENCODING 195
SWIDTH 308 0
DWIDTH 12 0
BBX 11 13 2 0
BITMAP
1f80
61e0
f800
0e00
0300
0300
0200
0200
0e00
3c00
2400
6400
3800
ENDCHAR
STARTCHAR Adiaeresis
ENCODING 196
SWIDTH 360 0
DWIDTH 14 0
BBX 12 20 2 -7
BITMAP
07e0
1830
3010
0810
1030
2020
2020
6060
5040
7040
90c0
9080
e080
0080
0100
0100
0100
0200
0200
0200
ENDCHAR
STARTCHAR Aring
ENCODING 197
SWIDTH 360 0
DWIDTH 14 0
BBX 12 13 1 0
BITMAP
07e0
1830
2030
0c30
1f30
2320
6160
41e0
51c0
f9c0
c8c0
9980
f180
ENDCHAR
STARTCHAR AE
ENCODING 198
SWIDTH 411 0
DWIDTH 16 0
BBX 16 20 0 -7
BITMAP
00fe
0387
0703
0183
0303
0606
0606
0c06
1c0c
7c0c
c80c
d818
f018
0018
0030
0030
0030
0060
0060
0060
ENDCHAR
STARTCHAR Ccedilla
ENCODING 199
SWIDTH 334 0
DWIDTH 13 0
BBX 10 13 2 0
BITMAP
1f80
60c0
80c0
00c0
00c0
0180
0180
0180
0300
1f00
1300
1200
1c00
ENDCHAR
STARTCHAR Egrave
ENCODING 200
SWIDTH 360 0
DWIDTH 14 0
BBX 14 14 1 0
BITMAP
0004
0fe8
3070
6070
4ff0
d120
d120
fe60
6040
6040
60c0
4080
c080
c180
ENDCHAR
STARTCHAR Eacute
ENCODING 201
SWIDTH 411 0
DWIDTH 16 0
BBX 16 13 0 0
BITMAP
1c06
2204
240c
3c0c
0deb
0d2a
095c
19f8
1830
1030
3020
3060
ffc0
ENDCHAR
STARTCHAR Ecircumflex
ENCODING 202
SWIDTH 360 0
DWIDTH 14 0
BBX 14 14 0 0
BITMAP
000c
07f8
1830
2070
0eb0
1f30
3320
61e0
61e0
51c0
f9c0
c8c0
9980
f180
ENDCHAR
STARTCHAR Ediaeresis
ENCODING 203
SWIDTH 411 0
DWIDTH 16 0
BBX 13 13 2 0
BITMAP
3838
4848
8888
f0f0
31e0
3330
3420
2820
7060
6040
4040
c0c0
8080
ENDCHAR
STARTCHAR Igrave
ENCODING 204
SWIDTH 437 0
DWIDTH 17 0
BBX 18 15 2 0
BITMAP
000e40
001280
785300
485e00
88c400
f9cc00
134800
324800
345800
285000
787000
707000
607000
c06000
c06000
ENDCHAR
STARTCHAR Iacute
ENCODING 205
SWIDTH 360 0
DWIDTH 14 0
BBX 12 13 1 0
BITMAP
07e0
1830
1010
0010
1c30
2420
2420
7860
6040
4040
c0c0
c080
ff00
ENDCHAR
STARTCHAR Icircumflex
ENCODING 206
SWIDTH 360 0
DWIDTH 14 0
BBX 15 13 0 0
BITMAP
0fe6
183c
1878
0fd0
0030
1c30
2420
6460
7c60
5040
c0c0
c0c0
ff80
ENDCHAR
STARTCHAR Idiaeresis
ENCODING 207
SWIDTH 334 0
DWIDTH 13 0
BBX 11 13 2 0
BITMAP
3c60
4440
48c0
f1c0
c380
c780
3980
0180
0300
0300
0600
0e00
3800
ENDCHAR
STARTCHAR ETH
ENCODING 208
SWIDTH 282 0
DWIDTH 11 0
BBX 12 13 -1 0
BITMAP
0e30
1320
1240
1f80
0000
0000
0000
0000
3080
5980
9b00
f600
7c00
ENDCHAR
STARTCHAR Ntilde
ENCODING 209
SWIDTH 0 0
DWIDTH 0 0
BBX 12 5 -8 16
BITMAP
3010
4830
9060
f1c0
7f00
ENDCHAR
STARTCHAR Ograve
ENCODING 210
SWIDTH 282 0
DWIDTH 11 0
BBX 9 13 2 0
BITMAP
3f00
6180
c180
0180
0100
0300
0300
0200
0600
0600
0400
0c00
0c00
ENDCHAR
STARTCHAR Oacute
ENCODING 211
SWIDTH 282 0
DWIDTH 11 0
BBX 12 20 -3 0
BITMAP
7800
8800
8800
f000
0000
0000
0000
03e0
0c30
1810
0030
0020
0020
0060
0040
0040
00c0
0080
0080
0180
ENDCHAR
STARTCHAR Ocircumflex
ENCODING 212
SWIDTH 0 0
DWIDTH 0 0
BBX 10 6 -13 15
BITMAP
0700
1980
20c0
7e40
81c0
0040
ENDCHAR
STARTCHAR Otilde
ENCODING 213
SWIDTH 51 0
DWIDTH 2 0
BBX 12 7 -12 15
BITMAP
0030
0720
19a0
2060
7f40
81c0
0040
ENDCHAR
STARTCHAR Odiaeresis
ENCODING 214
SWIDTH 0 0
DWIDTH 0 0
BBX 12 8 -13 15
BITMAP
0020
0050
0f90
19e0
6040
7f40
81c0
0040
ENDCHAR
STARTCHAR multiply
ENCODING 215
SWIDTH 51 0
DWIDTH 2 0
BBX 12 7 -12 15
BITMAP
01b0
0f20
19e0
6060
7f40
81c0
0040
ENDCHAR
STARTCHAR Ooblique
ENCODING 216
SWIDTH 0 0
DWIDTH 0 0
BBX 5 8 -6 -10
BITMAP
78
c8
98
f0
30
30
20
60
ENDCHAR
STARTCHAR Ugrave
ENCODING 217
SWIDTH 0 0
DWIDTH 0 0
BBX 9 8 -10 -10
BITMAP
7980
8900
9100
f300
3200
2200
3600
3c00
ENDCHAR
STARTCHAR Uacute
ENCODING 218
SWIDTH 0 0
DWIDTH 0 0
BBX 3 3 -4 -5
BITMAP
40
e0
c0
ENDCHAR
STARTCHAR Ucircumflex
ENCODING 219
SWIDTH 0 0
DWIDTH 0 0
BBX 3 3 -5 -10
BITMAP
60
e0
c0
ENDCHAR
STARTCHAR Udiaeresis
ENCODING 220
SWIDTH 0 0
DWIDTH 0 0
BBX 1 1 0 0
BITMAP
00
ENDCHAR
STARTCHAR Yacute
ENCODING 221
SWIDTH 0 0
DWIDTH 0 0
BBX 1 1 0 0
BITMAP
00
ENDCHAR
STARTCHAR THORN
ENCODING 222
SWIDTH 0 0
DWIDTH 0 0
BBX 1 1 0 0
BITMAP
00
ENDCHAR
STARTCHAR ssharp
ENCODING 223
SWIDTH 0 0
DWIDTH 0 0
BBX 1 1 0 0
BITMAP
00
ENDCHAR
STARTCHAR agrave
ENCODING 224
SWIDTH 205 0
DWIDTH 8 0
BBX 5 13 1 0
BITMAP
18
18
10
30
30
20
60
60
70
78
88
90
e0
ENDCHAR
STARTCHAR aacute
ENCODING 225
SWIDTH 360 0
DWIDTH 14 0
BBX 12 13 0 0
BITMAP
0c30
1820
1860
1860
3040
30c0
20c0
6080
71a0
79f0
cb30
db60
f3c0
ENDCHAR
STARTCHAR acircumflex
ENCODING 226
SWIDTH 205 0
DWIDTH 8 0
BBX 13 24 0 0
BITMAP
0788
1df0
1c00
0600
0600
0600
0600
0400
0c00
0c00
0800
1800
1800
1000
1000
3000
3000
2000
6000
7000
7800
c800
9800
f000
ENDCHAR
STARTCHAR atilde
ENCODING 227
SWIDTH 205 0
DWIDTH 8 0
BBX 8 24 0 0
BITMAP
0e
13
3b
2b
4a
36
06
04
0c
0c
08
18
18
10
10
30
20
20
60
70
78
88
90
f0
ENDCHAR
STARTCHAR adiaeresis
ENCODING 228
SWIDTH 257 0
DWIDTH 10 0
BBX 8 24 2 0
BITMAP
43
27
27
2a
32
76
64
24
0c
0c
08
18
18
10
10
30
20
20
60
70
78
88
90
e0
ENDCHAR
STARTCHAR aring
ENCODING 229
SWIDTH 282 0
DWIDTH 11 0
BBX 9 20 3 -7
BITMAP
1f00
6180
c180
0180
0100
0300
0300
0200
0600
0600
0400
0c00
0c00
0800
1800
1800
1000
3000
3000
2000
ENDCHAR
STARTCHAR ae
ENCODING 230
SWIDTH 385 0
DWIDTH 15 0
BBX 10 18 5 -5
BITMAP
1f80
24c0
40c0
f8c0
c880
c980
f180
0100
0300
0300
0200
0600
0600
0400
0c00
0c00
3800
6000
ENDCHAR
STARTCHAR ccedilla
ENCODING 231
SWIDTH 0 0
DWIDTH 0 0
BBX 11 8 -11 15
BITMAP
0020
0040
3f80
4000
9380
fc80
c500
4200
ENDCHAR
STARTCHAR egrave
ENCODING 232
SWIDTH 0 0
DWIDTH 0 0
BBX 3 5 -4 24
BITMAP
60
60
40
c0
c0
ENDCHAR
STARTCHAR eacute
ENCODING 233
SWIDTH 0 0
DWIDTH 0 0
BBX 9 5 -7 23
BITMAP
7180
9100
f300
2600
7800
ENDCHAR
STARTCHAR ecircumflex
ENCODING 234
SWIDTH 0 0
DWIDTH 0 0
BBX 10 5 -9 23
BITMAP
7e40
c280
e280
a700
4c00
ENDCHAR
STARTCHAR ediaeresis
ENCODING 235
SWIDTH 0 0
DWIDTH 0 0
BBX 7 5 -6 23
BITMAP
18
18
fe
30
20
ENDCHAR
STARTCHAR igrave
ENCODING 236
SWIDTH 0 0
DWIDTH 0 0
BBX 9 6 -6 22
BITMAP
0180
3e00
6000
f000
d000
f000
ENDCHAR
STARTCHAR iacute
ENCODING 237
SWIDTH 0 0
DWIDTH 0 0
BBX 5 5 -7 15
BITMAP
10
78
88
98
f0
ENDCHAR
STARTCHAR icircumflex
ENCODING 238
SWIDTH 0 0
DWIDTH 0 0
BBX 5 4 -7 19
BITMAP
78
c8
98
f0
ENDCHAR
STARTCHAR idiaeresis
ENCODING 239
SWIDTH 334 0
DWIDTH 13 0
BBX 14 13 0 0
BITMAP
03f0
0c18
180c
33cc
6fe4
4fec
dfec
dfc8
df98
cf30
c060
71c0
3f00
ENDCHAR
STARTCHAR eth
ENCODING 240
SWIDTH 360 0
DWIDTH 14 0
BBX 12 9 1 0
BITMAP
07c0
3870
7030
6030
c030
c060
e0c0
e180
7f00
ENDCHAR
STARTCHAR ntilde
ENCODING 241
SWIDTH 360 0
DWIDTH 14 0
BBX 12 11 1 -1
BITMAP
07c0
1c60
3070
6230
4f30
d930
df60
ce60
7cc0
0180
0200
ENDCHAR
STARTCHAR ograve
ENCODING 242
SWIDTH 437 0
DWIDTH 17 0
BBX 15 14 0 0
BITMAP
1800
1800
1800
3000
308c
33fe
7666
6fa6
7d8c
f90c
cf0c
c018
e018
7ff0
ENDCHAR
STARTCHAR oacute
ENCODING 243
SWIDTH 411 0
DWIDTH 16 0
BBX 14 10 1 0
BITMAP
0f38
194c
318c
6184
418c
f908
fb08
8b18
da10
f620
ENDCHAR
STARTCHAR ocircumflex
ENCODING 244
SWIDTH 411 0
DWIDTH 16 0
BBX 19 15 0 0
BITMAP
000060
000040
0000c0
000180
000380
018700
0ffc00
380000
738000
66c000
ccc000
cf8000
c78000
e3f000
3ff000
ENDCHAR
STARTCHAR otilde
ENCODING 245
SWIDTH 411 0
DWIDTH 16 0
BBX 19 15 0 0
BITMAP
000060
000040
00f0c0
01b180
013380
01ef00
0ffc00
380000
738000
66c000
ccc000
cf8000
c78000
e3f000
3ff000
ENDCHAR
STARTCHAR odiaeresis
ENCODING 246
SWIDTH 308 0
DWIDTH 12 0
BBX 10 15 1 0
BITMAP
2000
2000
3000
3000
3000
3f80
3fc0
20c0
00c0
10c0
7880
8880
9100
fe00
7c00
ENDCHAR
STARTCHAR division
ENCODING 247
SWIDTH 437 0
DWIDTH 17 0
BBX 18 14 0 0
BITMAP
0000c0
000080
000180
000100
000300
1ee200
333200
633200
403400
c02400
f86800
c8d800
c8e000
71c000
ENDCHAR
STARTCHAR oslash
ENCODING 248
SWIDTH 411 0
DWIDTH 16 0
BBX 17 14 0 0
BITMAP
000180
000180
000100
000300
07c600
1ffe00
383000
607000
c0f800
dc9800
fef800
f6f000
e7f000
63e000
ENDCHAR
STARTCHAR ugrave
ENCODING 249
SWIDTH 385 0
DWIDTH 15 0
BBX 15 14 0 0
BITMAP
0002
0002
0002
0004
0004
0f7c
3198
6080
4080
8cc0
9cc0
e440
e440
7840
ENDCHAR
STARTCHAR uacute
ENCODING 250
SWIDTH 1002 0
DWIDTH 39 0
BBX 38 1 0 6
BITMAP
fffffffffc
ENDCHAR
STARTCHAR ucircumflex
ENCODING 251
SWIDTH 488 0
DWIDTH 19 0
BBX 19 1 0 6
BITMAP
ffffe0
ENDCHAR
STARTCHAR udiaeresis
ENCODING 252
SWIDTH 0 0
DWIDTH 0 0
BBX 5 8 -6 -16
BITMAP
78
c8
98
f0
30
30
20
60
ENDCHAR
STARTCHAR yacute
ENCODING 253
SWIDTH 0 0
DWIDTH 0 0
BBX 9 8 -10 -16
BITMAP
7980
8900
9900
f300
3300
3200
3600
3c00
ENDCHAR
STARTCHAR thorn
ENCODING 254
SWIDTH 462 0
DWIDTH 18 0
BBX 17 16 1 0
BITMAP
00fc00
038600
060300
1bf180
311880
611880
433080
43c080
82c100
866100
866200
9e7600
c00c00
401800
603000
3fc000
ENDCHAR
STARTCHAR ydiaeresis
ENCODING 255
SWIDTH 0 0
DWIDTH 0 0
BBX 1 1 0 0
BITMAP
00
ENDCHAR
ENDFONT
